<mxfile host="app.diagrams.net" modified="2023-02-02T10:20:12.475Z" agent="5.0 (Windows NT 10.0; Win64; x64) AppleWebKit/537.36 (KHTML, like Gecko) Chrome/109.0.0.0 Safari/537.36" etag="LIf9CSR88Gm6ZQxlu4jh" version="20.8.15" type="github">
  <diagram id="C5RBs43oDa-KdzZeNtuy" name="Page-1">
    <mxGraphModel dx="1430" dy="1939" grid="1" gridSize="10" guides="1" tooltips="1" connect="1" arrows="1" fold="1" page="1" pageScale="1" pageWidth="827" pageHeight="1169" math="0" shadow="0">
      <root>
        <mxCell id="WIyWlLk6GJQsqaUBKTNV-0" />
        <mxCell id="WIyWlLk6GJQsqaUBKTNV-1" parent="WIyWlLk6GJQsqaUBKTNV-0" />
        <mxCell id="MrvcgN2iyZDdYH1yVEwK-6" style="edgeStyle=orthogonalEdgeStyle;rounded=0;orthogonalLoop=1;jettySize=auto;html=1;entryX=0.563;entryY=0;entryDx=0;entryDy=0;entryPerimeter=0;" edge="1" parent="WIyWlLk6GJQsqaUBKTNV-1" source="MrvcgN2iyZDdYH1yVEwK-1" target="MrvcgN2iyZDdYH1yVEwK-3">
          <mxGeometry relative="1" as="geometry" />
        </mxCell>
        <mxCell id="MrvcgN2iyZDdYH1yVEwK-7" style="edgeStyle=orthogonalEdgeStyle;rounded=0;orthogonalLoop=1;jettySize=auto;html=1;entryX=-0.002;entryY=0.043;entryDx=0;entryDy=0;entryPerimeter=0;" edge="1" parent="WIyWlLk6GJQsqaUBKTNV-1" source="MrvcgN2iyZDdYH1yVEwK-1">
          <mxGeometry relative="1" as="geometry">
            <mxPoint x="269.3799999999999" y="73.33000000000004" as="targetPoint" />
          </mxGeometry>
        </mxCell>
        <mxCell id="MrvcgN2iyZDdYH1yVEwK-1" value="Ubuntu 22 iso image" style="ellipse;whiteSpace=wrap;html=1;" vertex="1" parent="WIyWlLk6GJQsqaUBKTNV-1">
          <mxGeometry y="70" width="90" height="80" as="geometry" />
        </mxCell>
        <mxCell id="MrvcgN2iyZDdYH1yVEwK-9" style="edgeStyle=orthogonalEdgeStyle;rounded=0;orthogonalLoop=1;jettySize=auto;html=1;entryX=-0.01;entryY=0.422;entryDx=0;entryDy=0;entryPerimeter=0;" edge="1" parent="WIyWlLk6GJQsqaUBKTNV-1" source="MrvcgN2iyZDdYH1yVEwK-3" target="MrvcgN2iyZDdYH1yVEwK-8">
          <mxGeometry relative="1" as="geometry" />
        </mxCell>
        <mxCell id="MrvcgN2iyZDdYH1yVEwK-3" value="Ipxe confuguration" style="ellipse;whiteSpace=wrap;html=1;" vertex="1" parent="WIyWlLk6GJQsqaUBKTNV-1">
          <mxGeometry y="220" width="80" height="80" as="geometry" />
        </mxCell>
        <mxCell id="MrvcgN2iyZDdYH1yVEwK-12" style="edgeStyle=orthogonalEdgeStyle;rounded=0;orthogonalLoop=1;jettySize=auto;html=1;entryX=-0.047;entryY=0.147;entryDx=0;entryDy=0;entryPerimeter=0;" edge="1" parent="WIyWlLk6GJQsqaUBKTNV-1" source="MrvcgN2iyZDdYH1yVEwK-8" target="MrvcgN2iyZDdYH1yVEwK-11">
          <mxGeometry relative="1" as="geometry" />
        </mxCell>
        <mxCell id="MrvcgN2iyZDdYH1yVEwK-8" value="Deploy Server" style="rounded=1;whiteSpace=wrap;html=1;" vertex="1" parent="WIyWlLk6GJQsqaUBKTNV-1">
          <mxGeometry x="260" width="130" height="360" as="geometry" />
        </mxCell>
        <mxCell id="MrvcgN2iyZDdYH1yVEwK-17" style="edgeStyle=orthogonalEdgeStyle;rounded=0;orthogonalLoop=1;jettySize=auto;html=1;fontSize=10;entryX=0.374;entryY=0;entryDx=0;entryDy=0;entryPerimeter=0;" edge="1" parent="WIyWlLk6GJQsqaUBKTNV-1" source="MrvcgN2iyZDdYH1yVEwK-10" target="MrvcgN2iyZDdYH1yVEwK-8">
          <mxGeometry relative="1" as="geometry">
            <mxPoint x="260" y="500" as="targetPoint" />
          </mxGeometry>
        </mxCell>
        <mxCell id="MrvcgN2iyZDdYH1yVEwK-10" value="Ubuntu server Installer" style="ellipse;whiteSpace=wrap;html=1;aspect=fixed;" vertex="1" parent="WIyWlLk6GJQsqaUBKTNV-1">
          <mxGeometry y="-30" width="80" height="80" as="geometry" />
        </mxCell>
        <mxCell id="MrvcgN2iyZDdYH1yVEwK-14" style="edgeStyle=orthogonalEdgeStyle;rounded=0;orthogonalLoop=1;jettySize=auto;html=1;entryX=0.5;entryY=0;entryDx=0;entryDy=0;" edge="1" parent="WIyWlLk6GJQsqaUBKTNV-1" source="MrvcgN2iyZDdYH1yVEwK-11" target="MrvcgN2iyZDdYH1yVEwK-13">
          <mxGeometry relative="1" as="geometry" />
        </mxCell>
        <mxCell id="MrvcgN2iyZDdYH1yVEwK-11" value="Client" style="whiteSpace=wrap;html=1;aspect=fixed;" vertex="1" parent="WIyWlLk6GJQsqaUBKTNV-1">
          <mxGeometry x="500" y="70" width="80" height="80" as="geometry" />
        </mxCell>
        <mxCell id="MrvcgN2iyZDdYH1yVEwK-20" style="edgeStyle=orthogonalEdgeStyle;rounded=0;orthogonalLoop=1;jettySize=auto;html=1;entryX=0.5;entryY=1;entryDx=0;entryDy=0;fontSize=10;" edge="1" parent="WIyWlLk6GJQsqaUBKTNV-1" source="MrvcgN2iyZDdYH1yVEwK-13" target="MrvcgN2iyZDdYH1yVEwK-3">
          <mxGeometry relative="1" as="geometry">
            <Array as="points">
              <mxPoint x="540" y="430" />
              <mxPoint x="40" y="430" />
            </Array>
          </mxGeometry>
        </mxCell>
        <mxCell id="MrvcgN2iyZDdYH1yVEwK-13" value="PXE boot server" style="whiteSpace=wrap;html=1;aspect=fixed;" vertex="1" parent="WIyWlLk6GJQsqaUBKTNV-1">
          <mxGeometry x="500" y="240" width="80" height="80" as="geometry" />
        </mxCell>
        <mxCell id="MrvcgN2iyZDdYH1yVEwK-18" style="edgeStyle=orthogonalEdgeStyle;rounded=0;orthogonalLoop=1;jettySize=auto;html=1;exitX=0.5;exitY=1;exitDx=0;exitDy=0;fontSize=10;" edge="1" parent="WIyWlLk6GJQsqaUBKTNV-1" source="MrvcgN2iyZDdYH1yVEwK-8" target="MrvcgN2iyZDdYH1yVEwK-8">
          <mxGeometry relative="1" as="geometry" />
        </mxCell>
      </root>
    </mxGraphModel>
  </diagram>
</mxfile>
